<svg width="435" height="458" viewBox="0 0 435 458" fill="none" xmlns="http://www.w3.org/2000/svg">
<path d="M378.457 392.178C377.917 392.019 377.618 391.939 377.618 391.939L371.085 413.243L346.494 406.818C346.295 406.639 346.195 406.54 346.195 406.54C346.195 406.54 246.612 328.822 241.378 291.524C236.164 254.227 277.875 218.839 277.875 218.839C277.875 218.839 366.83 386.27 377.837 391.74C378.057 391.86 378.277 391.999 378.457 392.178Z" fill="#E57281"/>
<path d="M298.931 258.006C295.814 274.616 284.867 308.253 273.541 340.797C256.76 322.794 243.216 304.633 241.378 291.504C238.062 267.872 253.624 244.977 265.45 231.41C269.785 227.949 274.459 224.766 279.513 221.922C282.61 227.71 289.781 241.118 298.931 258.006Z" fill="#9A3B82"/>
<path d="M434.352 406.52L397.775 429.893L387.167 428.302L377.399 434.468L380.555 440.913L364.474 451.197C343.159 431.882 346.175 406.759 346.175 406.759L371.066 413.263L377.598 391.959C377.598 391.959 399.952 398.464 416.453 397.907C432.993 397.35 434.352 406.52 434.352 406.52Z" fill="white"/>
<path fill-rule="evenodd" clip-rule="evenodd" d="M377.198 391.222L377.766 391.387L377.598 391.96C377.766 391.387 377.766 391.387 377.766 391.387L377.781 391.391L377.829 391.405C377.871 391.417 377.934 391.435 378.017 391.459C378.183 391.506 378.43 391.575 378.75 391.663C379.39 391.839 380.324 392.09 381.497 392.389C383.843 392.989 387.143 393.782 390.957 394.558C398.595 396.112 408.253 397.587 416.432 397.311C424.817 397.029 429.46 399.212 432.012 401.568C433.282 402.741 434.013 403.938 434.427 404.851C434.633 405.307 434.761 405.693 434.838 405.969C434.876 406.107 434.902 406.217 434.919 406.297C434.927 406.336 434.933 406.368 434.937 406.391C434.939 406.402 434.941 406.412 434.942 406.419L434.943 406.428L434.944 406.431L434.944 406.433C434.944 406.433 434.944 406.434 434.351 406.521L434.944 406.434L435 406.815L397.908 430.517L387.299 428.926L378.172 434.687L381.327 441.129L364.41 451.948L364.07 451.64C353.3 441.881 348.676 430.65 346.745 421.863C345.781 417.471 345.488 413.687 345.437 410.998C345.412 409.653 345.447 408.582 345.488 407.843C345.509 407.474 345.532 407.188 345.549 406.993C345.558 406.896 345.565 406.821 345.571 406.77C345.573 406.744 345.576 406.725 345.577 406.711L345.579 406.695L345.579 406.691L345.58 406.689C345.58 406.689 345.58 406.689 346.175 406.759L345.58 406.689L345.661 406.008L370.661 412.541L377.198 391.222ZM346.71 407.516C346.702 407.633 346.693 407.765 346.685 407.91C346.645 408.621 346.611 409.663 346.636 410.976C346.685 413.601 346.971 417.305 347.916 421.608C349.786 430.119 354.234 440.964 364.538 450.448L379.782 440.699L376.624 434.251L387.035 427.679L397.64 429.27L433.671 406.246C433.608 406.025 433.503 405.713 433.334 405.342C432.977 404.553 432.334 403.493 431.197 402.443C428.934 400.353 424.628 398.229 416.472 398.504C408.15 398.785 398.381 397.286 390.717 395.727C386.88 394.947 383.56 394.149 381.2 393.546C380.019 393.244 379.078 392.991 378.431 392.814C378.268 392.769 378.124 392.729 377.999 392.694L371.471 413.987L346.71 407.516Z" fill="#FE5244"/>
<path fill-rule="evenodd" clip-rule="evenodd" d="M393.3 394.022C393.25 393.579 393.175 392.954 393.074 392.21C392.868 390.699 392.553 388.689 392.115 386.706C391.679 384.735 391.113 382.747 390.393 381.304C390.034 380.586 389.614 379.953 389.112 379.531C388.591 379.093 387.949 378.861 387.234 379.049L387.232 379.05L387.231 379.05C386.516 379.242 386.053 379.779 385.779 380.426C385.508 381.063 385.393 381.858 385.382 382.713C385.359 384.429 385.755 386.556 386.402 388.568C387.048 390.579 387.965 392.536 389.027 393.893C389.556 394.57 390.15 395.133 390.797 395.462C391.462 395.801 392.196 395.894 392.928 395.595C394.165 395.09 395.329 393.933 396.36 392.588C397.405 391.225 398.371 389.592 399.192 388.032C400.014 386.468 400.698 384.963 401.176 383.85C401.416 383.293 401.604 382.833 401.732 382.512C401.797 382.351 401.846 382.225 401.88 382.139C401.896 382.096 401.909 382.063 401.918 382.04L401.928 382.014L401.931 382.005L401.931 382.005C401.931 382.005 401.931 382.005 401.37 381.795C400.809 381.584 400.809 381.584 400.809 381.584L400.809 381.585L400.809 381.586L400.807 381.592L400.798 381.615C400.79 381.636 400.778 381.667 400.762 381.709C400.73 381.791 400.682 381.914 400.619 382.07C400.494 382.384 400.309 382.834 400.074 383.381C399.604 384.475 398.934 385.95 398.13 387.478C397.325 389.008 396.395 390.576 395.408 391.864C394.698 392.79 393.986 393.533 393.3 394.022ZM392.155 394.574C391.9 394.603 391.633 394.547 391.342 394.399C390.91 394.18 390.445 393.764 389.972 393.159C389.029 391.953 388.165 390.14 387.543 388.204C386.922 386.271 386.56 384.276 386.58 382.728C386.59 381.951 386.696 381.328 386.882 380.891C387.064 380.463 387.293 380.27 387.541 380.203C387.789 380.138 388.038 380.19 388.339 380.443C388.659 380.712 388.991 381.178 389.319 381.835C389.972 383.143 390.513 385.014 390.944 386.963C391.373 388.902 391.683 390.877 391.886 392.37C391.988 393.116 392.062 393.74 392.111 394.177C392.129 394.334 392.143 394.468 392.155 394.574Z" fill="#FE5244"/>
<path fill-rule="evenodd" clip-rule="evenodd" d="M433.15 403.843L398.34 425.485L386.787 423.634L374.662 430.85L349.98 430.47L349.999 429.276L374.34 429.652L386.547 422.387L398.086 424.236L432.515 402.831L433.15 403.843Z" fill="#FE5244"/>
<path fill-rule="evenodd" clip-rule="evenodd" d="M384.843 404.327L387.12 393.765L388.292 394.015L386.015 404.578L384.843 404.327Z" fill="#FE5244"/>
<path fill-rule="evenodd" clip-rule="evenodd" d="M389.797 405.521L392.074 394.958L393.246 395.209L390.969 405.771L389.797 405.521Z" fill="#FE5244"/>
<path fill-rule="evenodd" clip-rule="evenodd" d="M394.972 406.376L397.249 395.813L398.421 396.064L396.144 406.627L394.972 406.376Z" fill="#FE5244"/>
<path d="M269.426 210.704C269.426 210.704 284.069 217.507 284.069 242.452C284.069 266.561 228.175 414.199 228.175 414.199L210.975 428.721L193.516 409.684C202.046 401.608 177.554 255.6 269.426 210.704Z" fill="#E57281"/>
<path d="M267.868 457.007L224.4 457.047L216.329 450.005L204.763 449.945L203.924 457.067L186.884 457.087C177.614 428.363 193.596 409.664 193.596 409.664L210.935 428.681L228.255 414.18C228.255 414.18 243.277 431.724 257.461 440.119C271.684 448.533 267.868 457.007 267.868 457.007Z" fill="white"/>
<path fill-rule="evenodd" clip-rule="evenodd" d="M193.581 408.761L210.991 427.855L228.325 413.342L228.711 413.793L228.255 414.18C228.711 413.793 228.711 413.793 228.711 413.793L228.721 413.805L228.753 413.842C228.781 413.875 228.824 413.924 228.88 413.988C228.992 414.118 229.16 414.309 229.378 414.556C229.814 415.05 230.454 415.765 231.266 416.65C232.891 418.42 235.204 420.868 237.96 423.577C243.478 429.003 250.738 435.447 257.767 439.606C264.977 443.872 267.705 448.209 268.578 451.569C269.013 453.241 268.98 454.645 268.835 455.638C268.762 456.134 268.662 456.528 268.577 456.802C268.535 456.939 268.496 457.047 268.468 457.122C268.46 457.142 268.453 457.159 268.447 457.174C268.442 457.189 268.436 457.201 268.432 457.211C268.428 457.222 268.424 457.231 268.421 457.238L268.417 457.246L268.415 457.25C268.415 457.251 268.415 457.252 267.868 457.007L268.415 457.252L268.256 457.604L224.174 457.644L216.102 450.601L205.295 450.545L204.456 457.663L186.447 457.684L186.313 457.269C181.633 442.767 183.325 430.778 186.196 422.411C187.631 418.231 189.36 414.956 190.732 412.723C191.418 411.607 192.016 410.75 192.444 410.171C192.658 409.881 192.83 409.66 192.949 409.51C193.008 409.436 193.055 409.379 193.087 409.34C193.103 409.32 193.116 409.305 193.124 409.295L193.135 409.283L193.137 409.279L193.138 409.278C193.139 409.278 193.139 409.278 193.595 409.664L193.139 409.278L193.581 408.761ZM193.627 410.587C193.561 410.674 193.489 410.77 193.41 410.877C193 411.433 192.421 412.261 191.754 413.346C190.42 415.517 188.732 418.713 187.331 422.797C184.556 430.881 182.897 442.455 187.322 456.49L203.39 456.471L204.229 449.346L216.555 449.41L224.624 456.45L267.444 456.411C267.51 456.19 267.59 455.87 267.649 455.466C267.775 454.607 267.807 453.366 267.418 451.868C266.643 448.887 264.167 444.781 257.154 440.632C249.999 436.397 242.656 429.871 237.118 424.426C234.345 421.7 232.016 419.237 230.381 417.455C229.563 416.564 228.919 415.843 228.478 415.344C228.369 415.221 228.272 415.111 228.188 415.015L210.879 429.508L193.627 410.587Z" fill="#FE5244"/>
<path fill-rule="evenodd" clip-rule="evenodd" d="M248.27 408.056C249.16 407.934 250.018 408.153 250.762 408.796C251.5 409.434 251.84 410.23 251.837 411.104C251.835 411.949 251.515 412.825 251.031 413.679C250.065 415.385 248.326 417.202 246.486 418.844C244.635 420.495 242.636 422.01 241.103 423.11C240.395 423.618 239.785 424.039 239.332 424.345C239.531 424.364 239.773 424.373 240.061 424.368C240.781 424.357 241.688 424.265 242.725 424.111C244.797 423.802 247.325 423.255 249.785 422.658C252.242 422.062 254.617 421.421 256.38 420.928C257.261 420.682 257.988 420.473 258.494 420.326C258.747 420.252 258.946 420.194 259.08 420.154C259.147 420.134 259.199 420.119 259.233 420.108L259.285 420.093C259.285 420.093 259.285 420.093 259.458 420.664C259.63 421.236 259.63 421.236 259.63 421.236L259.577 421.252C259.557 421.258 259.532 421.265 259.502 421.274C259.478 421.281 259.451 421.289 259.421 421.298C259.285 421.338 259.085 421.397 258.83 421.471C258.32 421.62 257.589 421.83 256.704 422.077C254.933 422.572 252.543 423.218 250.068 423.818C247.596 424.417 245.027 424.975 242.902 425.291C241.841 425.449 240.875 425.549 240.08 425.562C239.32 425.573 238.598 425.51 238.114 425.246C237.455 424.885 237.333 424.103 237.356 423.447C237.381 422.736 237.584 421.859 237.9 420.913C238.537 419.01 239.685 416.683 241.065 414.543C242.44 412.411 244.08 410.412 245.722 409.209C246.544 408.607 247.407 408.174 248.27 408.056ZM238.557 423.427C239.009 423.122 239.65 422.682 240.402 422.142C241.917 421.055 243.879 419.568 245.686 417.955C247.504 416.332 249.121 414.622 249.987 413.092C250.421 412.328 250.637 411.659 250.639 411.101C250.64 410.573 250.451 410.108 249.976 409.697C249.505 409.29 248.997 409.161 248.433 409.238C247.844 409.319 247.168 409.631 246.433 410.17C244.961 411.248 243.415 413.108 242.073 415.188C240.736 417.261 239.637 419.499 239.038 421.29C238.748 422.156 238.586 422.886 238.557 423.427Z" fill="#FE5244"/>
<path fill-rule="evenodd" clip-rule="evenodd" d="M184.266 432.189L184.905 431.18L205.155 443.898H219.363L228.332 451.397H268.207V452.591H227.896L218.926 445.092H204.808L184.266 432.189Z" fill="#FE5244"/>
<path fill-rule="evenodd" clip-rule="evenodd" d="M226.273 427.483L233.944 419.845L234.792 420.689L227.121 428.327L226.273 427.483Z" fill="#FE5244"/>
<path fill-rule="evenodd" clip-rule="evenodd" d="M229.788 431.163L237.459 423.524L238.307 424.368L230.636 432.007L229.788 431.163Z" fill="#FE5244"/>
<path fill-rule="evenodd" clip-rule="evenodd" d="M233.665 434.664L241.336 427.025L242.184 427.869L234.513 435.508L233.665 434.664Z" fill="#FE5244"/>
<path d="M269.425 210.703C234.886 227.572 216.787 258.762 207.218 291.524H102.402C75.5731 291.524 55.5766 266.878 61.2299 240.76L68.9209 205.193H251.167C257.919 205.193 264.191 207.222 269.425 210.703Z" fill="#FE5244"/>
<path d="M191.596 244.798L229.331 244.719L223.738 253.849L191.596 244.798Z" fill="#E57281"/>
<path fill-rule="evenodd" clip-rule="evenodd" d="M108.676 204.609C109 204.677 109.208 204.993 109.14 205.315L107.682 212.277C107.682 212.277 107.682 212.277 107.682 212.277C104.244 228.716 116.825 244.142 133.684 244.142H229.005C239.061 230.273 252.185 218.361 269.36 209.969C269.657 209.824 270.016 209.946 270.162 210.242C270.308 210.538 270.185 210.895 269.888 211.04C252.806 219.387 239.775 231.254 229.798 245.087L229.619 245.336H133.684C116.064 245.336 102.915 229.213 106.509 212.034L107.967 205.072C108.035 204.749 108.352 204.542 108.676 204.609Z" fill="white"/>
<path fill-rule="evenodd" clip-rule="evenodd" d="M191.021 244.614C191.113 244.297 191.445 244.114 191.763 244.205L224.252 253.489L223.856 254.154C216.875 265.857 211.739 278.639 207.934 291.671C207.842 291.988 207.51 292.17 207.192 292.078C206.874 291.986 206.691 291.655 206.784 291.338C210.538 278.478 215.588 265.837 222.431 254.21L191.432 245.352C191.114 245.261 190.93 244.931 191.021 244.614Z" fill="white"/>
<path d="M44.4293 109.653L63.6267 184.646H27.8088C6.95327 184.646 -6.47096 162.586 3.19769 144.186L30.7054 91.8103C38.4962 76.9908 53.8981 67.7012 70.6984 67.7012H77.1908C55.1367 67.6813 38.9757 88.369 44.4293 109.653Z" fill="#3FB1B5"/>
<path d="M265.489 90.1982C276.776 90.1982 286.165 88.7063 288.442 86.6176L253.424 162.207C247.091 175.893 233.327 184.645 218.205 184.645C213.77 184.645 209.415 183.89 205.3 182.437C201.185 180.985 197.31 178.857 193.854 176.072L171.78 158.328C171.78 158.328 169.582 171.198 153.901 174.481V205.154H68.9005L44.4292 109.633C38.9757 88.3482 55.1367 67.6406 77.1907 67.6406H136.701C141.955 67.6406 147.129 68.2971 152.123 69.5701C165.787 73.0314 178.052 81.028 186.722 92.4858L215.808 130.917L241.937 85.444C241.937 85.4838 241.917 85.5434 241.917 85.5832C241.937 88.2289 252.505 90.1982 265.489 90.1982Z" fill="#3FB1B5"/>
<path fill-rule="evenodd" clip-rule="evenodd" d="M44.0853 109.073C44.4065 108.994 44.7315 109.189 44.811 109.509L63.609 185.099C63.6885 185.419 63.4926 185.742 63.1713 185.821C62.85 185.901 62.5251 185.706 62.4455 185.386L43.6476 109.796C43.568 109.476 43.764 109.153 44.0853 109.073Z" fill="white"/>
<path fill-rule="evenodd" clip-rule="evenodd" d="M154.869 141.204C155.11 140.978 155.489 140.99 155.716 141.23L172.416 158.934C172.643 159.174 172.631 159.552 172.39 159.778C172.148 160.003 171.769 159.991 171.543 159.751L154.842 142.047C154.616 141.807 154.627 141.429 154.869 141.204Z" fill="white"/>
<path d="M288.963 85.5032L288.444 86.6172C286.166 88.7257 276.777 90.1978 265.491 90.1978C252.506 90.1978 241.938 88.2284 241.938 85.6226C241.938 85.5828 241.938 85.5231 241.958 85.4833C242.318 82.9371 252.746 80.749 265.511 80.749C278.256 80.749 288.604 82.9371 288.963 85.5032C288.963 85.4833 288.963 85.4833 288.963 85.5032Z" fill="#FE5244"/>
<path d="M299.429 47.3108C299.429 48.4447 299.15 49.5586 298.63 50.5333C298.111 51.5081 297.352 52.3634 296.413 53.0198L295.953 53.3381L292.378 72.335C291.798 75.4182 289.96 78.1434 287.304 79.8343L282.409 82.9374L278.534 85.404L276.736 89.6808C273.4 90.019 269.584 90.2179 265.509 90.2179C261.394 90.2179 257.519 90.019 254.143 89.6609V60.2009C254.143 58.9278 254.422 57.6746 254.962 56.5208L261.474 42.5566C261.474 42.5566 268.586 44.3071 265.309 53C262.333 60.8971 269.125 58.8681 272.94 57.4557C276.356 56.1827 291.279 48.6237 297.112 45.8587C298.191 45.3415 299.429 46.1372 299.429 47.3108Z" fill="#E57281"/>
<path fill-rule="evenodd" clip-rule="evenodd" d="M293.289 64.6258C293.56 64.6763 293.738 64.9361 293.688 65.206C293.083 68.4249 291.164 71.2485 288.392 73.013L279.622 78.5831C279.389 78.7307 279.08 78.6628 278.932 78.4312C278.784 78.1996 278.852 77.8922 279.084 77.7445L287.854 72.175C290.395 70.5578 292.152 67.9708 292.706 65.0231C292.757 64.7532 293.017 64.5752 293.289 64.6258Z" fill="#9A3B82"/>
<path fill-rule="evenodd" clip-rule="evenodd" d="M294.727 56.5691C294.998 56.6196 295.177 56.8794 295.126 57.1494C294.521 60.3682 292.603 63.1919 289.83 64.9564L281.06 70.5264C280.827 70.6741 280.519 70.6061 280.37 70.3745C280.222 70.143 280.29 69.8355 280.523 69.6878L289.292 64.1183C289.292 64.1183 289.292 64.1182 289.292 64.1181C289.292 64.1181 289.292 64.1181 289.292 64.1181C291.833 62.501 293.59 59.914 294.144 56.9665C294.195 56.6965 294.456 56.5186 294.727 56.5691Z" fill="#9A3B82"/>
<path fill-rule="evenodd" clip-rule="evenodd" d="M295.735 53.2905C295.882 53.5224 295.813 53.8297 295.581 53.9768L281.477 62.8885C281.244 63.0357 280.936 62.967 280.788 62.7351C280.64 62.5032 280.709 62.1959 280.942 62.0487L295.045 53.137C295.278 52.9899 295.587 53.0586 295.735 53.2905Z" fill="#9A3B82"/>
<path d="M283.169 82.4399L282.39 82.9372L278.514 85.4038L276.716 89.6806C273.38 90.0188 269.565 90.2177 265.49 90.2177C261.374 90.2177 257.499 90.0188 254.123 89.6607V81.3856C257.499 80.9878 261.374 80.769 265.49 80.769C272.541 80.7491 278.854 81.4055 283.169 82.4399Z" fill="#9A3B82"/>
<path d="M150.266 69.1132C147.37 72.9922 136.583 82.1226 100.265 82.1226C53.5401 82.1226 83.445 67.7208 83.445 67.7208L103.262 34.7598L124.517 47.7492V58.1925C124.517 63.4639 128.812 67.7208 134.085 67.7208H135.464C140.418 67.7009 145.532 67.9197 150.266 69.1132Z" fill="#E57281"/>
<path d="M124.498 47.7287V50.3943L83.4258 67.7003L103.243 34.7393L124.498 47.7287Z" fill="#9A3B82"/>
<path d="M125.613 49.0209H130.128C134.283 49.0209 137.659 45.6591 137.659 41.5216V16.4775H110.711V34.1814C110.711 42.3769 117.383 49.0209 125.613 49.0209Z" fill="#E57281"/>
<path fill-rule="evenodd" clip-rule="evenodd" d="M133.456 37.8301L133.456 37.8297L133.456 37.829L133.455 37.8283C133.455 37.828 133.455 37.8281 133.455 37.8284C133.455 37.8284 133.455 37.8284 133.455 37.8284M133.455 37.8284C133.455 37.8285 133.455 37.8286 133.456 37.8288C133.456 37.83 133.458 37.8331 133.461 37.8378C133.467 37.8471 133.477 37.8631 133.492 37.8848C133.522 37.9282 133.57 37.9941 133.637 38.0751C133.771 38.2373 133.979 38.4581 134.27 38.6799C134.846 39.12 135.756 39.5719 137.08 39.5719C137.356 39.5719 137.579 39.7946 137.579 40.0692C137.579 40.3439 137.356 40.5665 137.08 40.5665C135.507 40.5665 134.389 40.0238 133.662 39.4694C133.301 39.1939 133.039 38.9173 132.865 38.7065C132.778 38.601 132.713 38.5115 132.668 38.4461C132.645 38.4134 132.628 38.3867 132.615 38.3669C132.609 38.357 132.604 38.3489 132.6 38.3426L132.596 38.3346L132.594 38.3317L132.593 38.3305L132.593 38.33C132.593 38.3297 132.592 38.3295 133.025 38.08" fill="#73325A"/>
<path d="M134.462 32.0534C134.991 32.0534 135.421 31.2251 135.421 30.2034C135.421 29.1818 134.991 28.3535 134.462 28.3535C133.932 28.3535 133.503 29.1818 133.503 30.2034C133.503 31.2251 133.932 32.0534 134.462 32.0534Z" fill="#73325A"/>
<path d="M115.846 19.0839C115.846 19.0839 138.08 32.4513 145.312 20.8145C151.664 10.6099 123.517 5.35839 113.689 5.31861C103.001 5.27882 88.838 9.99323 89.0777 25.6482C89.2775 38.5383 89.8168 57.3959 82.1458 54.1137C54.8579 42.457 30.6065 54.6309 30.5265 77.825C30.4466 101.019 57.4749 103.187 58.1541 97.1998C58.8532 91.2322 41.3738 92.6048 43.731 108.101C46.0683 123.597 56.496 142.971 80.308 142.971C109.074 142.991 127.393 105.276 109.594 101.437C95.9496 98.4928 123.497 124.71 131.668 97.4584C140.457 68.1177 108.695 58.5099 107.916 40.7861C107.136 23.0623 115.846 19.0839 115.846 19.0839Z" fill="#FFCF2D"/>
<path fill-rule="evenodd" clip-rule="evenodd" d="M97.0142 9.18089C101.968 5.98101 108.287 4.80142 113.691 4.82154C118.659 4.84165 128.208 6.17319 135.733 8.78539C139.486 10.0883 142.807 11.7331 144.79 13.7458C145.787 14.7586 146.471 15.8902 146.673 17.1417C146.877 18.4012 146.582 19.719 145.737 21.0764C143.832 24.141 140.935 25.5497 137.719 25.9471C134.521 26.3423 130.988 25.7428 127.727 24.7904C124.459 23.8362 121.427 22.5163 119.214 21.4376C118.107 20.8977 117.203 20.4171 116.574 20.0709C116.26 19.8978 116.015 19.7582 115.848 19.6616C115.843 19.6591 115.839 19.6567 115.835 19.6544C115.804 19.6722 115.77 19.6922 115.734 19.7145C115.515 19.8471 115.196 20.0589 114.813 20.3688C114.046 20.9883 113.018 22.0009 112.009 23.5584C109.993 26.6685 108.029 31.9885 108.415 40.7646C108.603 45.045 110.662 48.8695 113.589 52.691C115.051 54.6 116.719 56.4952 118.464 58.4389C118.761 58.7698 119.06 59.1021 119.36 59.4361C120.822 61.0598 122.319 62.7227 123.764 64.4476C127.249 68.6082 130.466 73.1707 132.249 78.5623C134.036 83.9657 134.372 90.1716 132.147 97.6008C130.076 104.507 126.743 108.129 123.041 109.624C121.085 110.414 119.059 110.595 117.115 110.379C117.198 114.426 115.644 119.242 112.842 123.907C106.829 133.917 94.9148 143.479 80.3081 143.469C68.2476 143.469 59.5528 138.555 53.5888 131.672C47.6369 124.803 44.4164 115.991 43.2375 108.175C42.6652 104.412 43.2303 101.421 44.4518 99.138C44.2586 99.0675 44.0653 98.9942 43.8722 98.9181C36.8857 96.1643 29.9867 89.6617 30.0275 77.8235C30.0681 66.0323 36.2645 57.0179 45.9193 52.4513C55.5588 47.8921 68.5964 47.7847 82.3431 53.6569L82.3434 53.657C83.2226 54.0332 83.9273 54.0696 84.5039 53.8878C85.0845 53.7047 85.6093 53.2772 86.0801 52.5848C87.0356 51.1793 87.6706 48.8273 88.0687 45.8795C88.8145 40.359 88.6972 33.0495 88.5973 26.8233C88.591 26.4297 88.5847 26.0404 88.5788 25.6561C88.4561 17.6475 92.0317 12.3991 97.0142 9.18089ZM45.41 99.4649C44.2522 101.549 43.6677 104.362 44.2252 108.026L44.2253 108.027C45.3836 115.707 48.5456 124.33 54.345 131.022C60.1321 137.701 68.5571 142.474 80.3084 142.474H80.3088C94.4682 142.484 106.097 133.198 111.985 123.396C114.771 118.757 116.237 114.058 116.111 110.232C114.751 109.984 113.445 109.554 112.246 109.017C110.653 108.303 109.234 107.394 108.107 106.451C106.987 105.514 106.127 104.519 105.689 103.624C105.47 103.176 105.338 102.716 105.366 102.28C105.395 101.822 105.602 101.417 106 101.134C106.377 100.866 106.885 100.736 107.482 100.71C108.085 100.684 108.822 100.762 109.7 100.951C112.02 101.452 113.786 102.514 115.013 104.01C116.21 105.471 116.867 107.312 117.058 109.371C118.915 109.601 120.833 109.442 122.666 108.702C126 107.356 129.175 104.036 131.189 97.3164C133.359 90.0753 133.021 84.0775 131.3 78.8734C129.575 73.6577 126.451 69.2091 122.997 65.0847C121.564 63.3745 120.081 61.7272 118.62 60.1036C118.318 59.7687 118.018 59.4348 117.719 59.1016C115.974 57.157 114.283 55.2367 112.795 53.2941C109.822 49.4124 107.618 45.3895 107.417 40.8081C107.024 31.8603 109.025 26.3292 111.169 23.0192C112.24 21.3666 113.341 20.2769 114.183 19.5965C114.604 19.2565 114.96 19.0191 115.214 18.8649C115.342 18.7877 115.444 18.7314 115.516 18.6934C115.552 18.6744 115.58 18.66 115.601 18.6499C115.611 18.6449 115.62 18.6409 115.626 18.6379L115.634 18.6342L115.638 18.6325C115.638 18.6323 115.638 18.6321 115.847 19.0841L115.638 18.6321L115.879 18.5224L116.105 18.6584L116.098 18.6695C116.105 18.6584 116.105 18.6584 116.105 18.6584L116.105 18.6587L116.108 18.6603L116.119 18.667C116.129 18.673 116.145 18.6821 116.165 18.6942C116.206 18.7184 116.268 18.7545 116.349 18.8012C116.511 18.8947 116.75 19.031 117.058 19.2006C117.674 19.54 118.563 20.0128 119.653 20.5443C121.836 21.6083 124.813 22.903 128.008 23.836C131.209 24.7709 134.591 25.3314 137.596 24.9601C140.582 24.591 143.176 23.3068 144.887 20.553L144.888 20.5527C145.631 19.3591 145.846 18.2806 145.687 17.2996C145.527 16.3106 144.978 15.3575 144.076 14.4422C142.261 12.5989 139.122 11.0151 135.404 9.72456C127.987 7.14994 118.548 5.83584 113.687 5.81614M116.037 109.205C115.831 107.408 115.237 105.857 114.239 104.639C113.173 103.339 111.617 102.382 109.488 101.923C108.661 101.745 108.014 101.682 107.525 101.703C107.031 101.725 106.74 101.83 106.58 101.943C106.441 102.042 106.374 102.166 106.363 102.344C106.35 102.544 106.41 102.826 106.587 103.188C106.94 103.91 107.686 104.8 108.749 105.689C109.806 106.573 111.147 107.434 112.656 108.11C113.72 108.587 114.86 108.969 116.037 109.205ZM45.41 99.4649C48.3735 100.407 51.275 100.699 53.5923 100.455C54.9487 100.312 56.1357 99.9832 57.0213 99.4671C57.9095 98.9495 58.542 98.2112 58.6506 97.2568C58.7528 96.3826 58.5205 95.6178 58.028 95.0079C57.5433 94.4077 56.8316 93.9869 56.0134 93.732C54.3815 93.2236 52.2183 93.3387 50.1412 94.1378C48.2092 94.881 46.3197 96.2278 44.9708 98.2673C44.7273 98.1807 44.4836 98.0894 44.2398 97.9933C37.5624 95.3614 30.9872 89.1828 31.0263 77.8269C31.0656 66.4241 37.035 57.7545 46.3478 53.3497C55.676 48.9377 68.408 48.7865 81.9491 54.5709C82.9877 55.0152 83.9441 55.1075 84.8055 54.836C85.6629 54.5656 86.3529 53.9577 86.9072 53.1423C88.0018 51.5323 88.6578 48.9797 89.0587 46.0121C89.8149 40.4139 89.6962 33.0336 89.5964 26.8316C89.5899 26.4295 89.5835 26.0322 89.5775 25.6409C89.4604 17.9944 92.8466 13.0582 97.5577 10.0153C102.297 6.95423 108.404 5.79649 113.687 5.81614M45.9559 98.593C47.1665 96.8678 48.8125 95.7152 50.5011 95.0655C52.4119 94.3305 54.3401 94.2528 55.7152 94.6812C56.4006 94.8947 56.9213 95.2247 57.2496 95.6311C57.5697 96.0276 57.7307 96.525 57.6584 97.1424L57.6582 97.1442C57.5967 97.6862 57.2361 98.1896 56.5168 98.6087C55.7946 99.0295 54.7592 99.3321 53.4874 99.4658C51.3829 99.6871 48.7151 99.437 45.9559 98.593Z" fill="white"/>
<path fill-rule="evenodd" clip-rule="evenodd" d="M130.19 30.3234H114.289V29.1299H130.19V30.3234Z" fill="#3FB1B5"/>
<path fill-rule="evenodd" clip-rule="evenodd" d="M135.085 25.1515C133.053 25.1515 131.169 27.32 131.169 30.3235C131.169 33.3269 133.053 35.4954 135.085 35.4954C137.117 35.4954 139 33.3269 139 30.3235C139 27.32 137.117 25.1515 135.085 25.1515ZM129.971 30.3235C129.971 26.955 132.13 23.958 135.085 23.958C138.04 23.958 140.199 26.955 140.199 30.3235C140.199 33.6919 138.04 36.6889 135.085 36.6889C132.13 36.6889 129.971 33.6919 129.971 30.3235Z" fill="#3FB1B5"/>
<path fill-rule="evenodd" clip-rule="evenodd" d="M110.433 1.91715C108.228 1.91715 106.457 3.69716 106.457 5.87567V22.6247H105.259V5.87567C105.259 3.04139 107.563 0.723633 110.433 0.723633H115.427C118.273 0.723633 120.601 3.01811 120.601 5.87567H119.402C119.402 3.68066 117.615 1.91715 115.427 1.91715H110.433Z" fill="#66B0F0"/>
<path d="M110.673 41.0649H101.064C98.607 41.0649 96.6094 39.0757 96.6094 36.629V27.0609C96.6094 24.6142 98.607 22.625 101.064 22.625H110.673C113.13 22.625 115.128 24.6142 115.128 27.0609V36.629C115.108 39.0757 113.13 41.0649 110.673 41.0649Z" fill="white"/>
<path fill-rule="evenodd" clip-rule="evenodd" d="M101.064 23.2218C98.9377 23.2218 97.2084 24.9439 97.2084 27.061V36.629C97.2084 38.7462 98.9377 40.4682 101.064 40.4682H110.673C112.793 40.4682 114.509 38.7508 114.528 36.6265V27.061C114.528 24.9439 112.799 23.2218 110.673 23.2218H101.064ZM96.0098 27.061C96.0098 24.2847 98.2757 22.0283 101.064 22.0283H110.673C113.461 22.0283 115.727 24.2847 115.727 27.061V36.6315L115.727 36.6339C115.704 39.402 113.465 41.6617 110.673 41.6617H101.064C98.2757 41.6617 96.0098 39.4053 96.0098 36.629V27.061Z" fill="#66B0F0"/>
<path d="M108.176 37.9022H103.481C101.464 37.9022 99.8057 36.271 99.8057 34.242V29.5674C99.8057 27.5583 101.444 25.9072 103.481 25.9072H108.176C110.193 25.9072 111.852 27.5384 111.852 29.5674V34.242C111.852 36.271 110.213 37.9022 108.176 37.9022Z" fill="white"/>
<path fill-rule="evenodd" clip-rule="evenodd" d="M103.482 26.5041C101.778 26.5041 100.406 27.8858 100.406 29.5674V34.2421C100.406 35.9394 101.793 37.3054 103.482 37.3054H108.177C109.883 37.3054 111.253 35.9415 111.253 34.2421V29.5674C111.253 27.8701 109.865 26.5041 108.177 26.5041H103.482ZM99.207 29.5674C99.207 27.2309 101.111 25.3105 103.482 25.3105H108.177C110.523 25.3105 112.452 27.2068 112.452 29.5674V34.2421C112.452 36.6006 110.545 38.499 108.177 38.499H103.482C101.136 38.499 99.207 36.6027 99.207 34.2421V29.5674Z" fill="#66B0F0"/>
<path fill-rule="evenodd" clip-rule="evenodd" d="M101.204 37.0863L109.554 26.0264L110.512 26.7436L102.162 37.8035L101.204 37.0863Z" fill="#66B0F0"/>
<path fill-rule="evenodd" clip-rule="evenodd" d="M99.5674 35.1946L106.799 25.6465L107.756 26.3651L100.524 35.9132L99.5674 35.1946Z" fill="#66B0F0"/>
<path fill-rule="evenodd" clip-rule="evenodd" d="M103.94 37.5423L111.172 27.9941L112.129 28.7128L104.897 38.261L103.94 37.5423Z" fill="#66B0F0"/>
<path fill-rule="evenodd" clip-rule="evenodd" d="M106.839 37.5432L111.374 31.5557L112.331 32.2743L107.796 38.2618L106.839 37.5432Z" fill="#66B0F0"/>
<path fill-rule="evenodd" clip-rule="evenodd" d="M99.3477 31.5942L103.862 25.6465L104.818 26.3662L100.304 32.3139L99.3477 31.5942Z" fill="#66B0F0"/>
</svg>
